HIERARCHY
ROOT Hips
{
	OFFSET -14.64140 90.27770 -84.91600
	CHANNELS 6 Xposition Yposition Zposition Zrotation Xrotation Yrotation
	JOINT Spine
	{
		OFFSET 0.00000 13.20850 -1.60436
		CHANNELS 3 Zrotation Xrotation Yrotation
		JOINT Spine1
		{
			OFFSET 0.00000 8.61716 0.00000
			CHANNELS 3 Zrotation Xrotation Yrotation
			JOINT Spine2
			{
				OFFSET 0.00000 8.61717 0.00000
				CHANNELS 3 Zrotation Xrotation Yrotation
				JOINT Spine3
				{
					OFFSET 0.00000 8.61717 0.00000
					CHANNELS 3 Zrotation Xrotation Yrotation
					JOINT Neck
					{
						OFFSET 0.00000 11.07920 1.10792
						CHANNELS 3 Zrotation Xrotation Yrotation
						JOINT Neck1
						{
							OFFSET 0.00000 7.08032 0.00000
							CHANNELS 3 Zrotation Xrotation Yrotation
							JOINT Head
							{
								OFFSET 0.00000 7.08031 0.00000
								CHANNELS 3 Zrotation Xrotation Yrotation
								End site
								{
									OFFSET 0.00000 0.00000 0.00000
								}
							}
						}
					}
					JOINT RightShoulder
					{
						OFFSET -0.01000 7.91373 5.19711
						CHANNELS 3 Zrotation Xrotation Yrotation
						JOINT RightArm
						{
							OFFSET -18.41580 0.00000 0.00000
							CHANNELS 3 Zrotation Xrotation Yrotation
							JOINT RightForeArm
							{
								OFFSET -29.11090 0.00000 0.00000
								CHANNELS 3 Zrotation Xrotation Yrotation
								JOINT RightHand
								{
									OFFSET -24.65040 0.00000 0.00000
									CHANNELS 3 Zrotation Xrotation Yrotation
									JOINT RightHandThumb1
									{
										OFFSET -5.35114 -0.85590 3.97906
										CHANNELS 3 Zrotation Xrotation Yrotation
										JOINT RightHandThumb2
										{
											OFFSET -4.52789 0.00000 0.00000
											CHANNELS 3 Zrotation Xrotation Yrotation
											JOINT RightHandThumb3
											{
												OFFSET -2.46976 0.00000 0.00000
												CHANNELS 3 Zrotation Xrotation Yrotation
												End site
												{
													OFFSET 0.00000 0.00000 0.00000
												}
											}
										}
									}
									JOINT RightHandIndex1
									{
										OFFSET -14.26970 0.00000 2.88139
										CHANNELS 3 Zrotation Xrotation Yrotation
										JOINT RightHandIndex2
										{
											OFFSET -5.48836 0.00000 0.00000
											CHANNELS 3 Zrotation Xrotation Yrotation
											JOINT RightHandIndex3
											{
												OFFSET -3.01859 0.00000 0.00000
												CHANNELS 3 Zrotation Xrotation Yrotation
												End site
												{
													OFFSET 0.00000 0.00000 0.00000
												}
											}
										}
									}
									JOINT RightHandMiddle1
									{
										OFFSET -14.26970 0.00000 -0.09147
										CHANNELS 3 Zrotation Xrotation Yrotation
										JOINT RightHandMiddle2
										{
											OFFSET -6.17441 0.00000 0.00000
											CHANNELS 3 Zrotation Xrotation Yrotation
											JOINT RightHandMiddle3
											{
												OFFSET -3.56743 0.00000 0.00000
												CHANNELS 3 Zrotation Xrotation Yrotation
												End site
												{
													OFFSET 0.00000 0.00000 0.00000
												}
											}
										}
									}
									JOINT RightHandRing1
									{
										OFFSET -12.69180 0.00000 -3.06433
										CHANNELS 3 Zrotation Xrotation Yrotation
										JOINT RightHandRing2
										{
											OFFSET -5.62556 0.00000 0.00000
											CHANNELS 3 Zrotation Xrotation Yrotation
											JOINT RightHandRing3
											{
												OFFSET -3.56744 0.00000 0.00000
												CHANNELS 3 Zrotation Xrotation Yrotation
												End site
												{
													OFFSET 0.00000 0.00000 0.00000
												}
											}
										}
									}
									JOINT RightHandPinky1
									{
										OFFSET -11.11390 0.00000 -6.03719
										CHANNELS 3 Zrotation Xrotation Yrotation
										JOINT RightHandPinky2
										{
											OFFSET -4.52789 0.00000 0.00000
											CHANNELS 3 Zrotation Xrotation Yrotation
											JOINT RightHandPinky3
											{
												OFFSET -2.46976 0.00000 0.00000
												CHANNELS 3 Zrotation Xrotation Yrotation
												End site
												{
													OFFSET 0.00000 0.00000 0.00000
												}
											}
										}
									}
								}
							}
						}
					}
					JOINT LeftShoulder
					{
						OFFSET 0.01000 7.91373 5.19711
						CHANNELS 3 Zrotation Xrotation Yrotation
						JOINT LeftArm
						{
							OFFSET 18.41580 0.00000 0.00000
							CHANNELS 3 Zrotation Xrotation Yrotation
							JOINT LeftForeArm
							{
								OFFSET 29.11090 0.00000 0.00000
								CHANNELS 3 Zrotation Xrotation Yrotation
								JOINT LeftHand
								{
									OFFSET 24.65040 0.00000 0.00000
									CHANNELS 3 Zrotation Xrotation Yrotation
									JOINT LeftHandThumb1
									{
										OFFSET 5.35114 -0.85590 3.97906
										CHANNELS 3 Zrotation Xrotation Yrotation
										JOINT LeftHandThumb2
										{
											OFFSET 4.52789 0.00000 0.00000
											CHANNELS 3 Zrotation Xrotation Yrotation
											JOINT LeftHandThumb3
											{
												OFFSET 2.46977 0.00000 0.00000
												CHANNELS 3 Zrotation Xrotation Yrotation
												End site
												{
													OFFSET 0.00000 0.00000 0.00000
												}
											}
										}
									}
									JOINT LeftHandIndex1
									{
										OFFSET 14.26970 0.00000 2.88139
										CHANNELS 3 Zrotation Xrotation Yrotation
										JOINT LeftHandIndex2
										{
											OFFSET 5.48836 0.00000 0.00000
											CHANNELS 3 Zrotation Xrotation Yrotation
											JOINT LeftHandIndex3
											{
												OFFSET 3.01859 0.00000 0.00000
												CHANNELS 3 Zrotation Xrotation Yrotation
												End site
												{
													OFFSET 0.00000 0.00000 0.00000
												}
											}
										}
									}
									JOINT LeftHandMiddle1
									{
										OFFSET 14.26970 0.00000 -0.09147
										CHANNELS 3 Zrotation Xrotation Yrotation
										JOINT LeftHandMiddle2
										{
											OFFSET 6.17440 0.00000 0.00000
											CHANNELS 3 Zrotation Xrotation Yrotation
											JOINT LeftHandMiddle3
											{
												OFFSET 3.56744 0.00000 0.00000
												CHANNELS 3 Zrotation Xrotation Yrotation
												End site
												{
													OFFSET 0.00000 0.00000 0.00000
												}
											}
										}
									}
									JOINT LeftHandRing1
									{
										OFFSET 12.69180 0.00000 -3.06433
										CHANNELS 3 Zrotation Xrotation Yrotation
										JOINT LeftHandRing2
										{
											OFFSET 5.62556 0.00000 0.00000
											CHANNELS 3 Zrotation Xrotation Yrotation
											JOINT LeftHandRing3
											{
												OFFSET 3.56744 0.00000 0.00000
												CHANNELS 3 Zrotation Xrotation Yrotation
												End site
												{
													OFFSET 0.00000 0.00000 0.00000
												}
											}
										}
									}
									JOINT LeftHandPinky1
									{
										OFFSET 11.11390 0.00000 -6.03719
										CHANNELS 3 Zrotation Xrotation Yrotation
										JOINT LeftHandPinky2
										{
											OFFSET 4.52789 0.00000 0.00000
											CHANNELS 3 Zrotation Xrotation Yrotation
											JOINT LeftHandPinky3
											{
												OFFSET 2.46976 0.00000 0.00000
												CHANNELS 3 Zrotation Xrotation Yrotation
												End site
												{
													OFFSET 0.00000 0.00000 0.00000
												}
											}
										}
									}
								}
							}
						}
					}
					JOINT pCube4
					{
						OFFSET 0.00000 10.91090 1.10792
						CHANNELS 3 Zrotation Xrotation Yrotation
						End site
						{
							OFFSET 0.00000 0.00000 0.00000
						}
					}
				}
			}
		}
	}
	JOINT RightUpLeg
	{
		OFFSET -9.98441 0.00000 0.00000
		CHANNELS 3 Zrotation Xrotation Yrotation
		JOINT RightLeg
		{
			OFFSET 0.00000 -42.11790 0.00000
			CHANNELS 3 Zrotation Xrotation Yrotation
			JOINT RightFoot
			{
				OFFSET 0.00000 -45.00020 -0.00001
				CHANNELS 3 Zrotation Xrotation Yrotation
				JOINT RightForeFoot
				{
					OFFSET 0.00000 -3.74820 0.00000
					CHANNELS 3 Zrotation Xrotation Yrotation
					JOINT RightToeBase
					{
						OFFSET 0.00000 0.06325 14.43120
						CHANNELS 3 Zrotation Xrotation Yrotation
						End site
						{
							OFFSET 0.00000 0.00000 0.00000
						}
					}
				}
			}
		}
	}
	JOINT LeftUpLeg
	{
		OFFSET 9.98441 0.00000 0.00000
		CHANNELS 3 Zrotation Xrotation Yrotation
		JOINT LeftLeg
		{
			OFFSET 0.00000 -42.11800 0.00000
			CHANNELS 3 Zrotation Xrotation Yrotation
			JOINT LeftFoot
			{
				OFFSET 0.00000 -45.00070 0.00000
				CHANNELS 3 Zrotation Xrotation Yrotation
				JOINT LeftForeFoot
				{
					OFFSET 0.00000 -3.74824 0.00000
					CHANNELS 3 Zrotation Xrotation Yrotation
					JOINT LeftToeBase
					{
						OFFSET 0.00000 0.06325 14.43110
						CHANNELS 3 Zrotation Xrotation Yrotation
						End site
						{
							OFFSET 0.00000 0.00000 0.00000
						}
					}
				}
			}
		}
	}
}
MOTION
Frames: 4
Frame Time: 0.050000
-0.01637560896663799 0.015180576353488068 -0.0006951664991421226 -0.029643735306608656 0.023186094847847675 -0.032774754761690804 2.6123024996087505 3.696459063228386 -1.7891877589303777 -0.8743428794771072 3.525048202734486 0.4077113058006629 -0.7310435166096494 -0.9933268136651022 0.44986460224568364 -0.6574203384899063 -0.13071023369157866 -0.4278799234811894 -0.20605228653411461 10.544049380082058 -0.43931703326905575 0.3313204486420116 -2.1178972115100065 -1.5938615875899236 0.7790836834930157 -19.461715804953155 -0.1953519695031509 -7.237988692710981 2.893555194858087 -15.973975015404788 82.89049508469478 20.613339546781887 2.324544269223931 -8.354917715929414 0.4470956278779402 50.66760959064668 19.04570902523046 -0.27664365285139514 -3.1442930836653984 4.495248575555349 -0.15140750828317168 -1.6280414762044413 0.03378049686240758 0.03879098337121961 -56.26824239819904 0.023583529523040582 -0.005678924150036671 -56.25402458802942 -38.7234769151938 -0.01499900636291503 -0.008494589276160194 0.0019649199334898747 0.005278618024424888 -0.00824719683281056 0.041984231638762456 -0.04329369231121268 0.026807495152577406 -36.70728261285536 0.0023029535737407463 -0.0315756305058821 -0.015186846353347532 0.0005836403861125635 -0.03179733427488143 0.03813116040369909 -0.04224238452545194 -0.03880757713575962 -19.719496870616936 0.021635899997947284 0.019795805478225563 0.014321564041071476 -0.046822859343305344 -0.011212619363662173 -0.02499680045623165 0.03521674430023845 -0.002778855723951174 24.028948150806837 0.02009990019079248 -0.003649482038629382 28.816994022810874 0.022462828662534004 -0.045481894030733376 28.842098071624076 0.014943574388927102 0.03968903296814538 7.696681720922957 1.9119502522588248 13.52691387532184 -77.3917269808661 24.747803955750104 -8.495127439594093 -0.588855085538942 -0.3345279416177408 -41.63192088006559 -19.97141892844754 -5.292538720536677 6.238050430027267 -0.4677961691026866 0.05137207574991873 -8.147267370710898 0.016013107094930236 -0.046149648032530265 44.58963956900923 0.005554300373547897 -0.008352891331988993 44.582827142710656 12.483633062039653 -0.005928983186762043 -0.024843241513540067 -0.04068605689059749 -0.02524230692894939 0.021144078357214113 -0.015233470436357187 0.026854109760419506 0.04689209508313989 11.099287627548925 0.006009014909146461 -0.029225743928799567 0.020265248227420048 0.03587337964193511 -0.006452641338569109 -0.012496470352569303 -0.03903473515863466 0.044222770389045804 4.763611423254437 -0.020879815618497742 0.040287429831359196 0.01041374521179266 -0.012929963957802444 -0.03742113293741093 -0.0018914175082468444 0.02581169247335738 -0.04394302806394171 -5.60785595550647 -0.024268853776819026 0.011085931725692557 -6.745127899302094 0.0054193177617273295 -0.037588276320342374 -6.709137930337021 0.007278119433256816 0.00937751868971581 -0.03587636083377781 -0.004128405172221593 -0.041046163524696956 8.073299478937622 3.524757199710404 -19.230877836427698 0.017756179270441517 10.418275820851255 0.05907367009639125 -5.632864015334339 -15.639699177682155 3.2330821214103023 -0.004223011855715189 -0.014883262178045017 0.009452248837688729 0.011465815793186195 4.716863465697414 0.022797094261409728 12.476133990515121 -8.188772276391058 6.8727115862529145 -0.01591550235657459 46.362358497525534 0.04820242801748487 -4.336209780771386 -14.781681964520896 -3.8800005271239013 -0.002410327270781908 0.00038944201401023236 0.0006531919288996226 0.026732315929974982 -10.716219589431747 -0.003038161864930445 
-0.04675325655569093 -0.02809166669599575 -0.018370025598143026 -0.02340172216060584 0.040110748190702025 0.017393457886435752 2.891874265764913 3.6752752462329923 -1.8401120026903515 -0.8445790034688769 3.5746955499856656 0.42300085808248494 -0.7275429496511845 -1.0106040874826197 0.4488900763766556 -0.5647771982611475 -0.05383490523885693 -0.37188044538117937 -0.16371189526682084 10.575731374956062 -0.5945331049150866 0.33825668569182127 -2.0477260909639763 -1.7899782866888994 0.7702790272550212 -19.339158721442196 -0.21138540408170833 -7.442190917892746 2.9367923615005904 -16.24689232825416 83.23355946093953 20.65999497431082 2.4115697811111336 -9.174075597786883 -0.09512401798150041 50.904739682482436 18.870570331396102 -0.2643321612994649 -3.2442245015615803 4.53169146757488 -0.1703156274245614 -1.5979856205237384 0.02396283697664165 -0.005678788045128508 -56.1987735412478 0.012234963996479215 0.0028688537523446746 -56.208146744075655 -38.74636790561599 0.009606277456839767 0.008244103026271045 0.03764846122772366 -0.04343689313709547 -0.04995170224029965 0.03926641450080311 -0.010233571621378482 0.04104503209214862 -36.7104410581722 0.022438233953581174 -0.01610323701095236 -0.02795010686450332 0.007100128766455546 0.026798525348927533 0.016905144792205146 0.006036600452513043 -0.038540625396306524 -19.801198538853818 0.0018067239184495671 -0.043196332639047895 0.006682855513123717 -0.03012738789398979 0.039286195546997374 -0.02371557157028666 0.024764097676092507 -0.02922749678253773 24.09425180999251 0.022210873936328365 -0.002703534561403782 28.880727862506422 -0.009318908280690354 0.040799355562924806 28.85918656724923 0.01816407920981403 -0.015689878013493058 7.722773991048162 1.9688315868220845 13.671092759034291 -77.49269126037754 25.136719979243388 -8.528638813890451 -0.8370223418596551 0.01172450844816382 -42.14594253606393 -20.50290276729515 -5.964186538080294 6.657610961949202 -0.5130783462841422 0.06731099532139632 -8.101157080773657 -0.0423008550844757 -0.010786367364862095 44.60641230307209 -0.04487710465648271 0.014342204851570985 44.56496912295691 12.4841301361194 0.02890946310160795 0.022002524572546065 0.008041581829862919 -0.011940083167745323 -0.013271553501956825 -0.036810439348651684 0.03716075691247919 0.001733770738059206 11.135529048004226 -0.014104935922400318 -0.018225998428676816 -0.031551675810111694 0.02019385021749311 -0.015144931583867625 -0.023009252521660764 -0.004471812131198054 -0.01181242135563355 4.779982291915826 -0.017878100920114402 -0.021611772280561013 -0.035093400036349906 -0.043350499260608 -0.01061022902445431 -0.00021323205955322723 -0.027852113857453936 -0.048361635839255526 -5.622504614207653 0.027111343559564443 0.017070519009690848 -6.746671649019441 0.028578890375016385 -0.00881643135292006 -6.713394465720607 -0.012798578804046822 0.03967368392523631 -0.027936599646866563 0.038069927124843264 -0.021779827392253905 7.996237835312873 3.4642853769153588 -19.2200925913289 -0.03709924454770333 10.413676011210491 0.04608087679238462 -5.582875036584234 -15.675836648609268 3.166318792763688 0.02848177734885592 -0.04100435195924824 -0.018347818478488324 -0.009686976518705401 4.681181286129774 0.024731846015764024 12.469431052879074 -8.256578135645913 6.847719901339377 -0.03638401859816523 46.41440925322647 0.025025364487972056 -4.353354569171774 -14.755666088075346 -3.8528023755653473 -0.020329574686456155 0.022636372628246505 0.029398321981706076 -0.030281427963069114 -10.742983189887276 -0.03657137460628412 
0.005769963455672174 0.028549484190980846 -0.009030753189240145 -0.030707941287957508 -0.014196687512520107 -0.02574736274987027 3.0970025736297577 3.6470134500988745 -1.8224640525389777 -0.8885062273690301 3.5811538876738775 0.3570771841377944 -0.780517460820564 -0.9219760085315905 0.5047873309465141 -0.5877166959352178 -0.07108298451365076 -0.36977063104859603 -0.166101894482323 10.705086259200485 -0.6389597675861989 0.32632082490663405 -1.918734772253091 -1.7876442071168357 0.7983783920378251 -19.14474372266029 -0.23928731247184615 -7.651366247019174 2.951863228982976 -16.37876572761316 83.50319846445213 21.00187651805955 2.445135674877408 -9.458722331614458 -0.9267923115755589 50.39085363030647 18.70111891352768 -0.24423976399857017 -3.3123214259517955 4.517969747015042 -0.13439123831245056 -1.5654059827881293 -0.042278835058112564 -0.022637905110250822 -56.25993155614782 -0.039974038796788264 0.04723627575181094 -56.22528702749941 -38.726165620100694 0.03063949336160292 -0.02764656222668871 0.0012801691994167256 0.041573662188422594 -0.026956776598189614 -0.02580945992064569 0.02030069847343365 -0.011521180684169997 -36.74190219974176 -0.016882949062162065 0.022565454833059762 -0.021036636822354116 0.006954608287991402 0.044245671548159726 0.022791529981019704 0.04574915725363586 0.03220241199183616 -19.78472941907499 -0.02976259576693074 -0.04087609826191831 -0.0021659320488501815 -0.014234291457380786 -0.03686051140217707 -0.0013663173769010476 0.001368978455001713 0.029156215946954358 24.06375402928762 0.005097384938945919 0.047404561312720646 28.823764624040802 -0.003702939233847981 0.04796562304031223 28.865421196876355 0.02891261899253659 -0.026658147091032137 7.823829754328039 2.0072854038835883 13.79297402883098 -77.55312835541821 25.44958294838496 -8.473329868914947 -0.7373866837752432 -0.22249559165552993 -42.029030238770424 -20.41615420348124 -6.037460829636113 6.798021601621697 -0.47792589144856107 0.1072645011527015 -8.169077185454269 -0.034833921310491844 0.02630076782455437 44.521129934656805 0.03536789064164259 -0.04216255205620119 44.580953718219114 12.468903969448974 0.016551828021904986 0.006755185684054498 -0.03701497808420806 -0.014916941526478765 0.02006291107472934 0.00899109077302538 0.026021498041684462 -0.04034705573758844 11.153522025187852 -0.017754458904566894 -0.04219693760503585 -0.01981839948130713 0.0272443995761809 0.014004362736547371 0.027641370849894206 -0.03375477040894467 0.02005562987965663 4.762556739297581 0.030210879354265665 -0.024953012045500787 -0.020409475694444772 -0.011238415609131419 -0.03059236221564076 0.02976199527940341 -0.030767801784525792 0.04149234186516568 -5.633813697872264 -0.020660484209238824 0.017557549024634092 -6.721127798581347 0.008768147595589986 -0.03685743281482624 -6.737791079873949 0.017156088469755994 0.015719204072309235 -0.00804254061038074 -0.035589685807334556 0.0065754992271191935 8.010764328401518 3.537864305352169 -19.22463087145464 0.0339284889793826 10.431071477526691 0.0075494173159594506 -5.658560672871741 -15.660349575656484 3.1886611601672104 0.038447331086576664 -0.0031155185110457524 -0.002751901990485328 0.016883028693447433 4.685594144582258 0.04442414736574319 12.429262178615645 -8.199362784513717 6.862046444062435 0.04689466205595429 46.3848395509478 -0.029929764603259162 -4.301698500465117 -14.760306740352275 -3.810801011751988 -0.024515303501983592 -0.011103072446250358 -0.04138506144496288 0.04951101316290481 -10.710584370246748 -0.026698039343322568 
-0.003890054553829938 -0.02498389591486092 -0.004248113883906455 -0.032275209576415685 0.044598711567114944 -0.042659695210820234 3.201344113742851 3.516023806092548 -1.9013626451965644 -0.9164575954881528 3.5733999276058674 0.4064385497662935 -0.7472389819210905 -0.9727074853762675 0.47777270461660365 -0.5269861113714861 -0.027598623703527565 -0.38849927169198906 -0.17421896353828992 10.762379556258256 -0.5513598485917681 0.35130064473424133 -1.8038853551039393 -1.6086334162614995 0.7928870703177536 -18.987568033171264 -0.25174483869437275 -7.722239405419975 2.96167951284804 -16.498970700698205 83.62744974666714 20.930526270610347 2.1182669556621434 -8.992545747162913 -1.6066897929105701 48.70380778526225 18.5357021117618 -0.27638026830373125 -3.4003052910126117 4.567992179125451 -0.13639959296187926 -1.546189584796398 -0.026351640436879344 -0.04449853715129126 -56.219836495612434 0.014274526438206304 0.014463484114153505 -56.25547125981534 -38.81349835705755 -0.020522745708546633 0.009068372377595916 -0.0010306644608847723 0.0074728380372890875 0.024544775962966683 -0.0084738812942099 -0.04094510882358068 0.010472374228733958 -36.73084467784651 -0.0034227770956035512 0.0197414739247519 0.034581221138008496 0.04028760767190281 -0.03522032776731627 0.013086240742170291 -0.003048903021083234 -0.014149654491013993 -19.80259450436654 0.024428508279723912 0.010718170030401805 0.03497764233322483 -0.015479626210823251 0.025121574860162855 0.0419631995480463 -0.04386733402793161 -0.030532289308010142 24.01115239807504 -0.03535572564315063 -0.029750162501269366 28.82643528379503 0.0399911660993646 0.03793455494079863 28.90693191997406 -0.027117627763240684 -0.008459131450299329 7.888000733984413 2.0003274105071225 13.931671198681597 -77.50504000928959 25.63895318765398 -8.083186515529938 0.08320511874113841 -0.9752715792792521 -41.223523035298726 -20.127638385552565 -5.795768712159655 6.542334502479491 -0.47120990240690697 0.033242584883456695 -8.113731888288527 -0.010467874633903163 -0.04971025018035941 44.53065660602364 0.014335086405910328 0.0021860471237989073 44.56524348690398 12.4908758184066 0.04545537381026182 0.006620299548682995 -0.02548840346788223 0.011914968117538045 -0.009678688558483736 0.017349211829715036 0.018298007518752015 -0.04059582141524874 11.097651946804266 -0.009918879634680468 0.018920496253328634 0.030292583693239904 0.008472323793254405 0.040432007258165314 -0.026425234550111337 0.008646321439157792 0.011308543470366554 4.758549487567166 -0.024463486318364935 0.02177986539477959 -0.03292324879131138 0.03038721534746196 0.0070070895985893675 -0.018768817517184486 0.03291510022665167 -0.030441790238780717 -5.646826764194986 0.017365951448709293 -0.01390644956634189 -6.686041083214521 0.025133732408337505 0.013430533620142286 -6.704209452587974 -0.0027864274009614834 -0.0357184185265144 -0.024122273720782877 0.027066914179347208 -0.002892950494156409 8.058246744808972 3.5171601873202447 -19.25620921552899 0.001590575240900914 10.362967712556463 -0.015311617902460078 -5.622172050045405 -15.664013153611489 3.21638404034503 -0.02042447507537452 -0.02233873488548062 -0.006437535560687489 -0.00859641320142164 4.6908372618173395 0.035702294292663674 12.446848919072437 -8.236612747674027 6.923122455299152 0.024760730389273605 46.37128815606125 -0.008344957681898586 -4.340971859483488 -14.727326479514176 -3.884438145615221 -0.046346978884182606 -0.008637110406034416 0.04498107411137465 -0.015498468319428088 -10.779598234057707 -0.03695919690378929 
